<svg version="1.1" xmlns="http://www.w3.org/2000/svg" xmlns:xlink="http://www.w3.org/1999/xlink" id="twitter" viewBox="0 0 19 15">
    <path d="M16.516 3.776c.008.162.011.326.011.487 0 4.978-3.797 10.716-10.74 10.716-2.133 0-4.116-.624-5.787-1.693a7.588 7.588 0 0 0 5.588-1.558 3.777 3.777 0 0 1-3.526-2.615 3.867 3.867 0 0 0 1.705-.065A3.772 3.772 0 0 1 .739 5.354v-.046a3.773 3.773 0 0 0 1.71.471A3.763 3.763 0 0 1 1.281.751a10.724 10.724 0 0 0 7.781 3.935A3.768 3.768 0 0 1 12.739.063c1.086 0 2.067.456 2.756 1.188a7.613 7.613 0 0 0 2.397-.913 3.781 3.781 0 0 1-1.66 2.083 7.565 7.565 0 0 0 2.168-.593 7.613 7.613 0 0 1-1.884 1.948z" fill-rule="nonzero" />
</svg>
